<svg height="512pt" viewBox="0 0 512 512" width="512pt" xmlns="http://www.w3.org/2000/svg"><path d="m512 256c0 141.386719-114.613281 256-256 256s-256-114.613281-256-256 114.613281-256 256-256 256 114.613281 256 256zm0 0" fill="#414952"/><path d="m511.980469 257.613281-137.085938-137.085937-226.441406 186.761718 89.503906 89.503907-65.296875 65.929687 46.648438 46.648438c11.984375 1.722656 24.230468 2.628906 36.691406 2.628906 140.847656 0 255.109375-113.746094 255.980469-254.386719zm0 0" fill="#23272b"/><path d="m339.339844 462.722656-83.339844-40-83.339844 40v-157.5h166.679688zm0 0" fill="#ffc612"/><path d="m256 422.722656 83.339844 40v-157.5h-83.339844zm0 0" fill="#fa0"/><path d="m403.035156 207.035156c0 81.207032-65.828125 147.039063-147.035156 147.039063s-147.035156-65.832031-147.035156-147.039063c0-81.203125 65.828125-147.035156 147.035156-147.035156s147.035156 65.832031 147.035156 147.035156zm0 0" fill="#ff7045"/><path d="m256 354.074219c81.207031 0 147.035156-65.832031 147.035156-147.039063 0-81.203125-65.828125-147.035156-147.035156-147.035156zm0 0" fill="#ea3f24"/><path d="m367.480469 207.035156c0 61.570313-49.910157 111.484375-111.480469 111.484375s-111.480469-49.914062-111.480469-111.484375c0-61.566406 49.910157-111.480468 111.480469-111.480468s111.480469 49.914062 111.480469 111.480468zm0 0" fill="#ea3f24"/><path d="m256 318.519531c61.570312 0 111.480469-49.914062 111.480469-111.480469 0-61.570312-49.910157-111.480468-111.480469-111.480468zm0 0" fill="#d9351c"/><path d="m256 122.632812 25.613281 51.894532 57.269531 8.324218-41.441406 40.394532 9.785156 57.039062-51.226562-26.929687-51.226562 26.929687 9.785156-57.039062-41.441406-40.394532 57.269531-8.324218zm0 0" fill="#fff"/><path d="m256 253.355469 51.226562 26.929687-9.785156-57.039062 41.441406-40.394532-57.269531-8.324218-25.613281-51.894532zm0 0" fill="#e9edf5"/></svg>